<svg xmlns="http://www.w3.org/2000/svg" width="760" height="360" viewBox="0 0 760 360" role="img" aria-labelledby="title desc">
  <title id="title">Mess kitchen counter</title>
  <desc id="desc">A compact illustration of food containers, plates, and market items for a student mess.</desc>
  <rect width="760" height="360" fill="#edf3f7"/>
  <rect x="0" y="252" width="760" height="108" fill="#d6e4df"/>
  <rect x="74" y="64" width="186" height="112" rx="12" fill="#ffffff" stroke="#c3ceda" stroke-width="4"/>
  <rect x="96" y="88" width="142" height="18" rx="6" fill="#0f8b6f"/>
  <rect x="96" y="120" width="96" height="14" rx="6" fill="#f5a524"/>
  <rect x="96" y="146" width="118" height="12" rx="6" fill="#255ec7"/>
  <circle cx="380" cy="177" r="82" fill="#ffffff" stroke="#c3ceda" stroke-width="5"/>
  <circle cx="380" cy="177" r="55" fill="#f5a524"/>
  <path d="M342 174c24-22 53-22 77 0 9 9 8 23-3 30-20 13-52 13-72 0-11-7-12-21-2-30Z" fill="#0f8b6f"/>
  <path d="M346 126h68c18 0 32 14 32 32v10H314v-10c0-18 14-32 32-32Z" fill="#255ec7"/>
  <rect x="314" y="160" width="132" height="24" rx="10" fill="#18202f"/>
  <rect x="512" y="74" width="104" height="182" rx="14" fill="#ffffff" stroke="#c3ceda" stroke-width="5"/>
  <rect x="536" y="102" width="56" height="28" rx="8" fill="#cf2e2e"/>
  <rect x="532" y="148" width="64" height="18" rx="8" fill="#0f8b6f"/>
  <rect x="532" y="184" width="64" height="18" rx="8" fill="#f5a524"/>
  <rect x="540" y="218" width="48" height="14" rx="7" fill="#255ec7"/>
  <circle cx="120" cy="260" r="31" fill="#cf2e2e"/>
  <circle cx="160" cy="272" r="22" fill="#0f8b6f"/>
  <circle cx="206" cy="262" r="28" fill="#f5a524"/>
  <rect x="274" y="238" width="174" height="48" rx="10" fill="#ffffff" stroke="#c3ceda" stroke-width="4"/>
  <rect x="294" y="253" width="134" height="8" rx="4" fill="#0f8b6f"/>
  <rect x="294" y="270" width="92" height="8" rx="4" fill="#255ec7"/>
  <rect x="500" y="252" width="144" height="56" rx="12" fill="#ffffff" stroke="#c3ceda" stroke-width="4"/>
  <rect x="520" y="270" width="104" height="10" rx="5" fill="#f5a524"/>
  <rect x="520" y="288" width="74" height="8" rx="4" fill="#0f8b6f"/>
</svg>
